<svg xmlns="http://www.w3.org/2000/svg" viewBox="0 0 1024 1024">
  <defs>
    <linearGradient id="shell" x1="156" y1="112" x2="858" y2="900" gradientUnits="userSpaceOnUse">
      <stop stop-color="#F8FBFF"/>
      <stop offset="0.46" stop-color="#D8F5F3"/>
      <stop offset="1" stop-color="#9FD5D1"/>
    </linearGradient>
    <linearGradient id="dial" x1="286" y1="265" x2="755" y2="784" gradientUnits="userSpaceOnUse">
      <stop stop-color="#25303C"/>
      <stop offset="1" stop-color="#0B1118"/>
    </linearGradient>
    <filter id="shadow" x="-25%" y="-25%" width="150%" height="160%">
      <feDropShadow dx="0" dy="28" stdDeviation="34" flood-color="#18313A" flood-opacity=".28"/>
    </filter>
  </defs>
  <rect x="92" y="72" width="840" height="840" rx="212" fill="url(#shell)" filter="url(#shadow)"/>
  <rect x="116" y="96" width="792" height="792" rx="190" fill="none" stroke="#FFFFFF" stroke-opacity=".72" stroke-width="18"/>
  <circle cx="512" cy="520" r="274" fill="url(#dial)"/>
  <path d="M314 584a218 218 0 0 1 396-8" fill="none" stroke="#EFF8F7" stroke-opacity=".24" stroke-width="58" stroke-linecap="round"/>
  <path d="M314 584a218 218 0 0 1 330-118" fill="none" stroke="#43D6C5" stroke-width="58" stroke-linecap="round"/>
  <circle cx="313" cy="584" r="22" fill="#FF6B6B"/>
  <circle cx="653" cy="458" r="22" fill="#FFD166"/>
  <path d="M512 521 681 402" stroke="#F8FBFF" stroke-width="32" stroke-linecap="round"/>
  <circle cx="512" cy="521" r="48" fill="#F8FBFF"/>
  <circle cx="512" cy="521" r="20" fill="#18232D"/>
  <rect x="377" y="674" width="270" height="72" rx="36" fill="#F8FBFF" fill-opacity=".12" stroke="#F8FBFF" stroke-opacity=".22" stroke-width="3"/>
  <circle cx="427" cy="710" r="13" fill="#43D6C5"/>
  <circle cx="477" cy="710" r="13" fill="#FFD166"/>
  <circle cx="527" cy="710" r="13" fill="#FF6B6B"/>
  <path d="M573 710h30" stroke="#F8FBFF" stroke-width="14" stroke-linecap="round"/>
</svg>
